<svg xmlns="http://www.w3.org/2000/svg" width="0" height="0" style="display:none" aria-hidden="true">
<!-- TesseraQL Studio nav icons. Geometry from Lucide (https://lucide.dev), ISC License.
     Each <symbol> carries the Lucide stroke presentation attributes so a referencing
     <svg class="hc-icon"><use href="/assets/_tesseraql/icons.svg#NAME"/></svg> renders correctly. -->
  <symbol id="compass" viewBox="0 0 24 24" fill="none" stroke="currentColor" stroke-width="2" stroke-linecap="round" stroke-linejoin="round">
    <circle cx="12" cy="12" r="10" />
    <path d="m16.24 7.76-1.804 5.411a2 2 0 0 1-1.265 1.265L7.76 16.24l1.804-5.411a2 2 0 0 1 1.265-1.265z" />
  </symbol>
  <symbol id="book-open" viewBox="0 0 24 24" fill="none" stroke="currentColor" stroke-width="2" stroke-linecap="round" stroke-linejoin="round">
    <path d="M12 7v14" />
    <path d="M3 18a1 1 0 0 1-1-1V4a1 1 0 0 1 1-1h5a4 4 0 0 1 4 4 4 4 0 0 1 4-4h5a1 1 0 0 1 1 1v13a1 1 0 0 1-1 1h-6a3 3 0 0 0-3 3 3 3 0 0 0-3-3z" />
  </symbol>
  <symbol id="database" viewBox="0 0 24 24" fill="none" stroke="currentColor" stroke-width="2" stroke-linecap="round" stroke-linejoin="round">
    <ellipse cx="12" cy="5" rx="9" ry="3" />
    <path d="M3 5V19A9 3 0 0 0 21 19V5" />
    <path d="M3 12A9 3 0 0 0 21 12" />
  </symbol>
  <symbol id="shield-check" viewBox="0 0 24 24" fill="none" stroke="currentColor" stroke-width="2" stroke-linecap="round" stroke-linejoin="round">
    <path d="M20 13c0 5-3.5 7.5-7.66 8.95a1 1 0 0 1-.67-.01C7.5 20.5 4 18 4 13V6a1 1 0 0 1 1-1c2 0 4.5-1.2 6.24-2.72a1.17 1.17 0 0 1 1.52 0C14.51 3.81 17 5 19 5a1 1 0 0 1 1 1z" />
    <path d="m9 12 2 2 4-4" />
  </symbol>
  <symbol id="share-2" viewBox="0 0 24 24" fill="none" stroke="currentColor" stroke-width="2" stroke-linecap="round" stroke-linejoin="round">
    <circle cx="18" cy="5" r="3" />
    <circle cx="6" cy="12" r="3" />
    <circle cx="18" cy="19" r="3" />
    <line x1="8.59" x2="15.42" y1="13.51" y2="17.49" />
    <line x1="15.41" x2="8.59" y1="6.51" y2="10.49" />
  </symbol>
  <symbol id="blocks" viewBox="0 0 24 24" fill="none" stroke="currentColor" stroke-width="2" stroke-linecap="round" stroke-linejoin="round">
    <path d="M10 22V7a1 1 0 0 0-1-1H4a2 2 0 0 0-2 2v12a2 2 0 0 0 2 2h12a2 2 0 0 0 2-2v-5a1 1 0 0 0-1-1H2" />
    <rect x="14" y="2" width="8" height="8" rx="1" />
  </symbol>
  <symbol id="wrench" viewBox="0 0 24 24" fill="none" stroke="currentColor" stroke-width="2" stroke-linecap="round" stroke-linejoin="round">
    <path d="M14.7 6.3a1 1 0 0 0 0 1.4l1.6 1.6a1 1 0 0 0 1.4 0l3.106-3.105c.32-.322.863-.22.983.218a6 6 0 0 1-8.259 7.057l-7.91 7.91a1 1 0 0 1-2.999-3l7.91-7.91a6 6 0 0 1 7.057-8.259c.438.12.54.662.219.984z" />
  </symbol>
  <symbol id="database-zap" viewBox="0 0 24 24" fill="none" stroke="currentColor" stroke-width="2" stroke-linecap="round" stroke-linejoin="round">
    <ellipse cx="12" cy="5" rx="9" ry="3" />
    <path d="M3 5V19A9 3 0 0 0 15 21.84" />
    <path d="M21 5V8" />
    <path d="M21 12L18 17H22L19 22" />
    <path d="M3 12A9 3 0 0 0 14.59 14.87" />
  </symbol>
  <symbol id="wand-sparkles" viewBox="0 0 24 24" fill="none" stroke="currentColor" stroke-width="2" stroke-linecap="round" stroke-linejoin="round">
    <path d="m21.64 3.64-1.28-1.28a1.21 1.21 0 0 0-1.72 0L2.36 18.64a1.21 1.21 0 0 0 0 1.72l1.28 1.28a1.2 1.2 0 0 0 1.72 0L21.64 5.36a1.2 1.2 0 0 0 0-1.72" />
    <path d="m14 7 3 3" />
    <path d="M5 6v4" />
    <path d="M19 14v4" />
    <path d="M10 2v2" />
    <path d="M7 8H3" />
    <path d="M21 16h-4" />
    <path d="M11 3H9" />
  </symbol>
  <symbol id="file-pen" viewBox="0 0 24 24" fill="none" stroke="currentColor" stroke-width="2" stroke-linecap="round" stroke-linejoin="round">
    <path d="M12.659 22H18a2 2 0 0 0 2-2V8a2.4 2.4 0 0 0-.706-1.706l-3.588-3.588A2.4 2.4 0 0 0 14 2H6a2 2 0 0 0-2 2v9.34" />
    <path d="M14 2v5a1 1 0 0 0 1 1h5" />
    <path d="M10.378 12.622a1 1 0 0 1 3 3.003L8.36 20.637a2 2 0 0 1-.854.506l-2.867.837a.5.5 0 0 1-.62-.62l.836-2.869a2 2 0 0 1 .506-.853z" />
  </symbol>
  <symbol id="scroll-text" viewBox="0 0 24 24" fill="none" stroke="currentColor" stroke-width="2" stroke-linecap="round" stroke-linejoin="round">
    <path d="M15 12h-5" />
    <path d="M15 8h-5" />
    <path d="M19 17V5a2 2 0 0 0-2-2H4" />
    <path d="M8 21h12a2 2 0 0 0 2-2v-1a1 1 0 0 0-1-1H11a1 1 0 0 0-1 1v1a2 2 0 1 1-4 0V5a2 2 0 1 0-4 0v2a1 1 0 0 0 1 1h3" />
  </symbol>
  <symbol id="activity" viewBox="0 0 24 24" fill="none" stroke="currentColor" stroke-width="2" stroke-linecap="round" stroke-linejoin="round">
    <path d="M22 12h-2.48a2 2 0 0 0-1.93 1.46l-2.35 8.36a.25.25 0 0 1-.48 0L9.24 2.18a.25.25 0 0 0-.48 0l-2.35 8.36A2 2 0 0 1 4.49 12H2" />
  </symbol>
  <symbol id="users" viewBox="0 0 24 24" fill="none" stroke="currentColor" stroke-width="2" stroke-linecap="round" stroke-linejoin="round">
    <path d="M16 21v-2a4 4 0 0 0-4-4H6a4 4 0 0 0-4 4v2" />
    <path d="M16 3.128a4 4 0 0 1 0 7.744" />
    <path d="M22 21v-2a4 4 0 0 0-3-3.87" />
    <circle cx="9" cy="7" r="4" />
  </symbol>
  <symbol id="layout-dashboard" viewBox="0 0 24 24" fill="none" stroke="currentColor" stroke-width="2" stroke-linecap="round" stroke-linejoin="round">
    <rect width="7" height="9" x="3" y="3" rx="1" />
    <rect width="7" height="5" x="14" y="3" rx="1" />
    <rect width="7" height="9" x="14" y="12" rx="1" />
    <rect width="7" height="5" x="3" y="16" rx="1" />
  </symbol>
  <symbol id="waypoints" viewBox="0 0 24 24" fill="none" stroke="currentColor" stroke-width="2" stroke-linecap="round" stroke-linejoin="round">
    <path d="m10.586 5.414-5.172 5.172" />
    <path d="m18.586 13.414-5.172 5.172" />
    <path d="M6 12h12" />
    <circle cx="12" cy="20" r="2" />
    <circle cx="12" cy="4" r="2" />
    <circle cx="20" cy="12" r="2" />
    <circle cx="4" cy="12" r="2" />
  </symbol>
  <symbol id="arrow-left-right" viewBox="0 0 24 24" fill="none" stroke="currentColor" stroke-width="2" stroke-linecap="round" stroke-linejoin="round">
    <path d="M8 3 4 7l4 4" />
    <path d="M4 7h16" />
    <path d="m16 21 4-4-4-4" />
    <path d="M20 17H4" />
  </symbol>
  <symbol id="send" viewBox="0 0 24 24" fill="none" stroke="currentColor" stroke-width="2" stroke-linecap="round" stroke-linejoin="round">
    <path d="M14.536 21.686a.5.5 0 0 0 .937-.024l6.5-19a.496.496 0 0 0-.635-.635l-19 6.5a.5.5 0 0 0-.024.937l7.93 3.18a2 2 0 0 1 1.112 1.11z" />
    <path d="m21.854 2.147-10.94 10.939" />
  </symbol>
</svg>
